<svg width="174" height="13" viewBox="0 0 174 13" fill="none" xmlns="http://www.w3.org/2000/svg">
<path d="M1.92614 5.19922V9.13672H0.920455V0.409446H1.92614V3.61399H2.01136C2.16477 3.27592 2.39489 3.00746 2.7017 2.80859C3.01136 2.60689 3.4233 2.50604 3.9375 2.50604C4.38352 2.50604 4.77415 2.59553 5.10938 2.7745C5.4446 2.95064 5.70455 3.22195 5.8892 3.58842C6.0767 3.95206 6.17045 4.41513 6.17045 4.97763V9.13672H5.16477V5.04581C5.16477 4.52592 5.02983 4.12393 4.75994 3.83984C4.4929 3.55291 4.12216 3.40945 3.64773 3.40945C3.31818 3.40945 3.02273 3.47905 2.76136 3.61825C2.50284 3.75746 2.2983 3.96058 2.14773 4.22763C2 4.49467 1.92614 4.81854 1.92614 5.19922ZM10.8569 2.59126V3.44354H7.46484V2.59126H10.8569ZM8.45348 1.02308H9.45916V7.26172C9.45916 7.54581 9.50036 7.75888 9.58274 7.90092C9.66797 8.04013 9.77592 8.13388 9.90661 8.18217C10.0401 8.22763 10.1808 8.25036 10.3285 8.25036C10.4393 8.25036 10.5302 8.24467 10.6012 8.23331C10.6722 8.21911 10.729 8.20774 10.7717 8.19922L10.9762 9.10263C10.908 9.1282 10.8129 9.15376 10.6907 9.17933C10.5685 9.20774 10.4137 9.22195 10.2262 9.22195C9.94212 9.22195 9.66371 9.16087 9.39098 9.03871C9.12109 8.91655 8.89666 8.73047 8.71768 8.48047C8.54155 8.23047 8.45348 7.91513 8.45348 7.53445V1.02308ZM15.2163 2.59126V3.44354H11.8242V2.59126H15.2163ZM12.8129 1.02308H13.8185V7.26172C13.8185 7.54581 13.8597 7.75888 13.9421 7.90092C14.0273 8.04013 14.1353 8.13388 14.266 8.18217C14.3995 8.22763 14.5401 8.25036 14.6879 8.25036C14.7987 8.25036 14.8896 8.24467 14.9606 8.23331C15.0316 8.21911 15.0884 8.20774 15.131 8.19922L15.3356 9.10263C15.2674 9.1282 15.1722 9.15376 15.0501 9.17933C14.9279 9.20774 14.7731 9.22195 14.5856 9.22195C14.3015 9.22195 14.0231 9.16087 13.7504 9.03871C13.4805 8.91655 13.256 8.73047 13.0771 8.48047C12.9009 8.23047 12.8129 7.91513 12.8129 7.53445V1.02308ZM16.729 11.5913V2.59126H17.7006V3.63104H17.82C17.8938 3.5174 17.9961 3.37251 18.1268 3.19638C18.2603 3.0174 18.4506 2.85831 18.6978 2.71911C18.9478 2.57706 19.2859 2.50604 19.712 2.50604C20.2631 2.50604 20.7489 2.64382 21.1694 2.91939C21.5898 3.19496 21.918 3.58558 22.1538 4.09126C22.3896 4.59695 22.5075 5.19354 22.5075 5.88104C22.5075 6.57422 22.3896 7.17507 22.1538 7.68359C21.918 8.18928 21.5913 8.58132 21.1737 8.85973C20.756 9.1353 20.2745 9.27308 19.729 9.27308C19.3086 9.27308 18.9719 9.20348 18.7191 9.06428C18.4663 8.92223 18.2717 8.76172 18.1353 8.58274C17.9989 8.40092 17.8938 8.25036 17.82 8.13104H17.7347V11.5913H16.729ZM17.7177 5.86399C17.7177 6.35831 17.7901 6.79439 17.935 7.17223C18.0799 7.54723 18.2915 7.84126 18.57 8.05433C18.8484 8.26456 19.1893 8.36967 19.5927 8.36967C20.0131 8.36967 20.364 8.25888 20.6452 8.03729C20.9293 7.81286 21.1424 7.51172 21.2844 7.13388C21.4293 6.7532 21.5018 6.3299 21.5018 5.86399C21.5018 5.40376 21.4308 4.98899 21.2887 4.61967C21.1495 4.24751 20.9379 3.95348 20.6538 3.73757C20.3725 3.51882 20.0188 3.40945 19.5927 3.40945C19.1836 3.40945 18.8398 3.51314 18.5614 3.72053C18.283 3.92507 18.0728 4.212 17.9308 4.58132C17.7887 4.9478 17.7177 5.37535 17.7177 5.86399ZM28.6779 4.05717L27.7745 4.31285C27.7177 4.16229 27.6339 4.01598 27.5231 3.87393C27.4151 3.72905 27.2674 3.60973 27.0799 3.51598C26.8924 3.42223 26.6523 3.37535 26.3597 3.37535C25.9592 3.37535 25.6254 3.46768 25.3583 3.65234C25.0941 3.83416 24.962 4.0657 24.962 4.34695C24.962 4.59695 25.0529 4.79439 25.2347 4.93928C25.4165 5.08416 25.7006 5.2049 26.087 5.30149L27.0586 5.54013C27.6438 5.68217 28.0799 5.8995 28.3668 6.19212C28.6538 6.48189 28.7972 6.85547 28.7972 7.31286C28.7972 7.68786 28.6893 8.02308 28.4734 8.31854C28.2603 8.61399 27.962 8.84695 27.5785 9.0174C27.195 9.18786 26.7489 9.27308 26.2404 9.27308C25.5728 9.27308 25.0202 9.1282 24.5827 8.83842C24.1452 8.54865 23.8683 8.12536 23.7518 7.56854L24.7063 7.3299C24.7972 7.68217 24.9691 7.94638 25.2219 8.12251C25.4776 8.29865 25.8114 8.38672 26.2234 8.38672C26.6921 8.38672 27.0643 8.28729 27.3398 8.08842C27.6183 7.88672 27.7575 7.64524 27.7575 7.36399C27.7575 7.13672 27.6779 6.94638 27.5188 6.79297C27.3597 6.63672 27.1154 6.52024 26.7859 6.44354L25.695 6.18786C25.0955 6.04581 24.6552 5.82564 24.3739 5.52734C24.0955 5.22621 23.9563 4.84979 23.9563 4.39808C23.9563 4.02876 24.06 3.70206 24.2674 3.41797C24.4776 3.13388 24.7631 2.91087 25.1239 2.74893C25.4876 2.587 25.8995 2.50604 26.3597 2.50604C27.0075 2.50604 27.516 2.64808 27.8853 2.93217C28.2575 3.21626 28.5217 3.59126 28.6779 4.05717ZM31.044 9.2049C30.8338 9.2049 30.6534 9.12962 30.5028 8.97905C30.3523 8.82848 30.277 8.64808 30.277 8.43786C30.277 8.22763 30.3523 8.04723 30.5028 7.89666C30.6534 7.74609 30.8338 7.67081 31.044 7.67081C31.2543 7.67081 31.4347 7.74609 31.5852 7.89666C31.7358 8.04723 31.8111 8.22763 31.8111 8.43786C31.8111 8.57706 31.7756 8.7049 31.7045 8.82138C31.6364 8.93786 31.544 9.03161 31.4276 9.10263C31.3139 9.17081 31.1861 9.2049 31.044 9.2049ZM31.044 4.34695C30.8338 4.34695 30.6534 4.27166 30.5028 4.12109C30.3523 3.97053 30.277 3.79013 30.277 3.5799C30.277 3.36967 30.3523 3.18928 30.5028 3.03871C30.6534 2.88814 30.8338 2.81286 31.044 2.81286C31.2543 2.81286 31.4347 2.88814 31.5852 3.03871C31.7358 3.18928 31.8111 3.36967 31.8111 3.5799C31.8111 3.71911 31.7756 3.84695 31.7045 3.96342C31.6364 4.0799 31.544 4.17365 31.4276 4.24467C31.3139 4.31285 31.1861 4.34695 31.044 4.34695ZM36.701 0.000354528L33.8885 10.4492H32.968L35.7805 0.000354528H36.701ZM40.9783 0.000354528L38.1658 10.4492H37.2454L40.0579 0.000354528H40.9783ZM44.8125 11.7276C44.3267 11.7276 43.9091 11.6651 43.5597 11.5401C43.2102 11.418 42.919 11.256 42.6861 11.0543C42.456 10.8555 42.2727 10.6424 42.1364 10.4151L42.9375 9.85263C43.0284 9.97195 43.1435 10.1083 43.2827 10.2617C43.4219 10.418 43.6122 10.5529 43.8537 10.6665C44.098 10.783 44.4176 10.8413 44.8125 10.8413C45.3409 10.8413 45.777 10.7134 46.1207 10.4577C46.4645 10.2021 46.6364 9.80149 46.6364 9.25604V7.92649H46.5511C46.4773 8.04581 46.3722 8.19354 46.2358 8.36967C46.1023 8.54297 45.9091 8.6978 45.6562 8.83416C45.4062 8.96768 45.0682 9.03445 44.642 9.03445C44.1136 9.03445 43.6392 8.90945 43.2188 8.65945C42.8011 8.40945 42.4702 8.04581 42.2259 7.56854C41.9844 7.09126 41.8636 6.51172 41.8636 5.8299C41.8636 5.15945 41.9815 4.57564 42.2173 4.07848C42.4531 3.57848 42.7813 3.19212 43.2017 2.91939C43.6222 2.64382 44.108 2.50604 44.6591 2.50604C45.0852 2.50604 45.4233 2.57706 45.6733 2.71911C45.9261 2.85831 46.1193 3.0174 46.2528 3.19638C46.3892 3.37251 46.4943 3.5174 46.5682 3.63104H46.6705V2.59126H47.642V9.32422C47.642 9.88672 47.5142 10.3441 47.2585 10.6964C47.0057 11.0515 46.6648 11.3114 46.2358 11.4762C45.8097 11.6438 45.3352 11.7276 44.8125 11.7276ZM44.7784 8.13104C45.1818 8.13104 45.5227 8.03871 45.8011 7.85405C46.0795 7.66939 46.2912 7.40376 46.4361 7.05717C46.581 6.71058 46.6534 6.29581 46.6534 5.81285C46.6534 5.34126 46.5824 4.92507 46.4403 4.56428C46.2983 4.20348 46.0881 3.92081 45.8097 3.71626C45.5313 3.51172 45.1875 3.40945 44.7784 3.40945C44.3523 3.40945 43.9972 3.5174 43.7131 3.73331C43.4318 3.94922 43.2202 4.23899 43.0781 4.60263C42.9389 4.96626 42.8693 5.36967 42.8693 5.81285C42.8693 6.2674 42.9403 6.66939 43.0824 7.01882C43.2273 7.36541 43.4403 7.63814 43.7216 7.837C44.0057 8.03303 44.358 8.13104 44.7784 8.13104ZM49.483 9.13672V2.59126H50.4886V9.13672H49.483ZM49.9943 1.50036C49.7983 1.50036 49.6293 1.43359 49.4872 1.30007C49.348 1.16655 49.2784 1.00604 49.2784 0.818537C49.2784 0.631037 49.348 0.470526 49.4872 0.337003C49.6293 0.20348 49.7983 0.136719 49.9943 0.136719C50.1903 0.136719 50.358 0.20348 50.4972 0.337003C50.6392 0.470526 50.7102 0.631037 50.7102 0.818537C50.7102 1.00604 50.6392 1.16655 50.4972 1.30007C50.358 1.43359 50.1903 1.50036 49.9943 1.50036ZM55.1772 2.59126V3.44354H51.7852V2.59126H55.1772ZM52.7738 1.02308H53.7795V7.26172C53.7795 7.54581 53.8207 7.75888 53.9031 7.90092C53.9883 8.04013 54.0962 8.13388 54.2269 8.18217C54.3604 8.22763 54.5011 8.25036 54.6488 8.25036C54.7596 8.25036 54.8505 8.24467 54.9215 8.23331C54.9925 8.21911 55.0494 8.20774 55.092 8.19922L55.2965 9.10263C55.2283 9.1282 55.1332 9.15376 55.011 9.17933C54.8888 9.20774 54.734 9.22195 54.5465 9.22195C54.2624 9.22195 53.984 9.16087 53.7113 9.03871C53.4414 8.91655 53.217 8.73047 53.038 8.48047C52.8619 8.23047 52.7738 7.91513 52.7738 7.53445V1.02308ZM57.8363 5.19922V9.13672H56.8306V0.409446H57.8363V3.61399H57.9215C58.0749 3.27592 58.305 3.00746 58.6119 2.80859C58.9215 2.60689 59.3335 2.50604 59.8477 2.50604C60.2937 2.50604 60.6843 2.59553 61.0195 2.7745C61.3548 2.95064 61.6147 3.22195 61.7994 3.58842C61.9869 3.95206 62.0806 4.41513 62.0806 4.97763V9.13672H61.0749V5.04581C61.0749 4.52592 60.94 4.12393 60.6701 3.83984C60.4031 3.55291 60.0323 3.40945 59.5579 3.40945C59.2283 3.40945 58.9329 3.47905 58.6715 3.61825C58.413 3.75746 58.2085 3.96058 58.0579 4.22763C57.9102 4.49467 57.8363 4.81854 57.8363 5.19922ZM68.0455 6.46058V2.59126H69.0511V9.13672H68.0455V8.02876H67.9773C67.8239 8.36115 67.5852 8.64382 67.2614 8.87678C66.9375 9.10689 66.5284 9.22195 66.0341 9.22195C65.625 9.22195 65.2614 9.13246 64.9432 8.95348C64.625 8.77166 64.375 8.49893 64.1932 8.1353C64.0114 7.76882 63.9205 7.30717 63.9205 6.75036V2.59126H64.9261V6.68217C64.9261 7.15945 65.0597 7.54013 65.3267 7.82422C65.5966 8.10831 65.9403 8.25036 66.358 8.25036C66.608 8.25036 66.8622 8.18643 67.1207 8.05859C67.3821 7.93075 67.6009 7.73473 67.777 7.47053C67.956 7.20632 68.0455 6.86967 68.0455 6.46058ZM71.0295 9.13672V0.409446H72.0352V3.63104H72.1204C72.1942 3.5174 72.2965 3.37251 72.4272 3.19638C72.5607 3.0174 72.7511 2.85831 72.9982 2.71911C73.2482 2.57706 73.5863 2.50604 74.0124 2.50604C74.5636 2.50604 75.0494 2.64382 75.4698 2.91939C75.8903 3.19496 76.2184 3.58558 76.4542 4.09126C76.69 4.59695 76.8079 5.19354 76.8079 5.88104C76.8079 6.57422 76.69 7.17507 76.4542 7.68359C76.2184 8.18928 75.8917 8.58132 75.4741 8.85973C75.0565 9.1353 74.5749 9.27308 74.0295 9.27308C73.609 9.27308 73.2724 9.20348 73.0195 9.06428C72.7667 8.92223 72.5721 8.76172 72.4357 8.58274C72.2994 8.40092 72.1942 8.25036 72.1204 8.13104H72.0011V9.13672H71.0295ZM72.0181 5.86399C72.0181 6.35831 72.0906 6.79439 72.2354 7.17223C72.3803 7.54723 72.592 7.84126 72.8704 8.05433C73.1488 8.26456 73.4897 8.36967 73.8931 8.36967C74.3136 8.36967 74.6644 8.25888 74.9457 8.03729C75.2298 7.81286 75.4428 7.51172 75.5849 7.13388C75.7298 6.7532 75.8022 6.3299 75.8022 5.86399C75.8022 5.40376 75.7312 4.98899 75.5891 4.61967C75.4499 4.24751 75.2383 3.95348 74.9542 3.73757C74.6729 3.51882 74.3192 3.40945 73.8931 3.40945C73.484 3.40945 73.1403 3.51314 72.8619 3.72053C72.5835 3.92507 72.3732 4.212 72.2312 4.58132C72.0891 4.9478 72.0181 5.37535 72.0181 5.86399ZM79.0792 9.2049C78.869 9.2049 78.6886 9.12962 78.538 8.97905C78.3874 8.82848 78.3121 8.64808 78.3121 8.43786C78.3121 8.22763 78.3874 8.04723 78.538 7.89666C78.6886 7.74609 78.869 7.67081 79.0792 7.67081C79.2894 7.67081 79.4698 7.74609 79.6204 7.89666C79.771 8.04723 79.8462 8.22763 79.8462 8.43786C79.8462 8.57706 79.8107 8.7049 79.7397 8.82138C79.6715 8.93786 79.5792 9.03161 79.4627 9.10263C79.3491 9.17081 79.2212 9.2049 79.0792 9.2049ZM84.31 9.27308C83.6964 9.27308 83.168 9.1282 82.7248 8.83842C82.2816 8.54865 81.9407 8.1495 81.7021 7.64098C81.4634 7.13246 81.3441 6.55149 81.3441 5.89808C81.3441 5.23331 81.4663 4.64666 81.7106 4.13814C81.9577 3.62678 82.3015 3.22763 82.7418 2.9407C83.185 2.65092 83.7021 2.50604 84.293 2.50604C84.7532 2.50604 85.168 2.59126 85.5373 2.76172C85.9066 2.93217 86.2092 3.17081 86.445 3.47763C86.6808 3.78445 86.8271 4.1424 86.8839 4.55149H85.8782C85.8015 4.2532 85.631 3.98899 85.3668 3.75888C85.1055 3.52592 84.7532 3.40945 84.31 3.40945C83.918 3.40945 83.5742 3.51172 83.2788 3.71626C82.9862 3.91797 82.7575 4.20348 82.5927 4.5728C82.4308 4.93928 82.3498 5.36967 82.3498 5.86399C82.3498 6.36967 82.4293 6.81001 82.5884 7.18501C82.7504 7.56001 82.9776 7.85121 83.2702 8.05859C83.5657 8.26598 83.9123 8.36967 84.31 8.36967C84.5714 8.36967 84.8086 8.32422 85.0217 8.23331C85.2347 8.1424 85.4151 8.01172 85.5629 7.84126C85.7106 7.67081 85.8157 7.46626 85.8782 7.22763H86.8839C86.8271 7.61399 86.6864 7.962 86.462 8.27166C86.2404 8.57848 85.9464 8.8228 85.5799 9.00462C85.2163 9.18359 84.793 9.27308 84.31 9.27308ZM91.0131 9.27308C90.4222 9.27308 89.9038 9.13246 89.4577 8.85121C89.0146 8.56996 88.668 8.17649 88.418 7.67081C88.1708 7.16513 88.0472 6.57422 88.0472 5.89808C88.0472 5.21626 88.1708 4.62109 88.418 4.11257C88.668 3.60405 89.0146 3.20916 89.4577 2.92791C89.9038 2.64666 90.4222 2.50604 91.0131 2.50604C91.604 2.50604 92.1211 2.64666 92.5643 2.92791C93.0103 3.20916 93.3569 3.60405 93.604 4.11257C93.854 4.62109 93.979 5.21626 93.979 5.89808C93.979 6.57422 93.854 7.16513 93.604 7.67081C93.3569 8.17649 93.0103 8.56996 92.5643 8.85121C92.1211 9.13246 91.604 9.27308 91.0131 9.27308ZM91.0131 8.36967C91.462 8.36967 91.8313 8.25462 92.1211 8.0245C92.4109 7.79439 92.6254 7.49183 92.7646 7.11683C92.9038 6.74183 92.9734 6.33558 92.9734 5.89808C92.9734 5.46058 92.9038 5.05291 92.7646 4.67507C92.6254 4.29723 92.4109 3.99183 92.1211 3.75888C91.8313 3.52592 91.462 3.40945 91.0131 3.40945C90.5643 3.40945 90.195 3.52592 89.9052 3.75888C89.6154 3.99183 89.4009 4.29723 89.2617 4.67507C89.1225 5.05291 89.0529 5.46058 89.0529 5.89808C89.0529 6.33558 89.1225 6.74183 89.2617 7.11683C89.4009 7.49183 89.6154 7.79439 89.9052 8.0245C90.195 8.25462 90.5643 8.36967 91.0131 8.36967ZM95.5142 9.13672V2.59126H96.4858V3.61399H96.571C96.7074 3.26456 96.9276 2.99325 97.2315 2.80007C97.5355 2.60405 97.9006 2.50604 98.3267 2.50604C98.7585 2.50604 99.1179 2.60405 99.4048 2.80007C99.6946 2.99325 99.9205 3.26456 100.082 3.61399H100.151C100.318 3.27592 100.57 3.00746 100.905 2.80859C101.24 2.60689 101.642 2.50604 102.111 2.50604C102.696 2.50604 103.175 2.68928 103.547 3.05575C103.919 3.41939 104.105 3.98615 104.105 4.75604V9.13672H103.099V4.75604C103.099 4.27308 102.967 3.92791 102.703 3.72053C102.439 3.51314 102.128 3.40945 101.77 3.40945C101.31 3.40945 100.953 3.54865 100.7 3.82706C100.447 4.10263 100.321 4.45206 100.321 4.87535V9.13672H99.2983V4.65376C99.2983 4.28161 99.1776 3.98189 98.9361 3.75462C98.6946 3.5245 98.3835 3.40945 98.0028 3.40945C97.7415 3.40945 97.4972 3.47905 97.2699 3.61825C97.0455 3.75746 96.8636 3.95064 96.7244 4.1978C96.5881 4.44212 96.5199 4.72479 96.5199 5.04581V9.13672H95.5142ZM109.029 0.000354528L106.217 10.4492H105.296L108.109 0.000354528H109.029ZM111.227 5.19922V9.13672H110.221V0.409446H111.227V3.61399H111.312C111.466 3.27592 111.696 3.00746 112.002 2.80859C112.312 2.60689 112.724 2.50604 113.238 2.50604C113.684 2.50604 114.075 2.59553 114.41 2.7745C114.745 2.95064 115.005 3.22195 115.19 3.58842C115.377 3.95206 115.471 4.41513 115.471 4.97763V9.13672H114.466V5.04581C114.466 4.52592 114.331 4.12393 114.061 3.83984C113.794 3.55291 113.423 3.40945 112.949 3.40945C112.619 3.40945 112.324 3.47905 112.062 3.61825C111.804 3.75746 111.599 3.96058 111.449 4.22763C111.301 4.49467 111.227 4.81854 111.227 5.19922ZM117.724 11.5913C117.554 11.5913 117.402 11.5771 117.268 11.5487C117.135 11.5231 117.043 11.4975 116.991 11.4719L117.247 10.5856C117.491 10.6481 117.707 10.6708 117.895 10.6538C118.082 10.6367 118.249 10.5529 118.393 10.4023C118.541 10.2546 118.676 10.0146 118.798 9.68217L118.986 9.17081L116.565 2.59126H117.656L119.463 7.80717H119.531L121.338 2.59126H122.429L119.651 10.0913C119.526 10.4293 119.371 10.7092 119.186 10.9308C119.001 11.1552 118.787 11.3214 118.543 11.4293C118.301 11.5373 118.028 11.5913 117.724 11.5913ZM126.266 9.27308C125.636 9.27308 125.092 9.13388 124.634 8.85547C124.18 8.57422 123.829 8.18217 123.582 7.67933C123.337 7.17365 123.215 6.58558 123.215 5.91513C123.215 5.24467 123.337 4.65376 123.582 4.1424C123.829 3.6282 124.173 3.22763 124.613 2.9407C125.056 2.65092 125.573 2.50604 126.164 2.50604C126.505 2.50604 126.842 2.56286 127.174 2.67649C127.506 2.79013 127.809 2.97479 128.082 3.23047C128.354 3.48331 128.572 3.81854 128.734 4.23615C128.896 4.65376 128.977 5.16797 128.977 5.77876V6.2049H123.931V5.33558H127.954C127.954 4.96626 127.88 4.63672 127.732 4.34695C127.587 4.05717 127.38 3.82848 127.11 3.66087C126.843 3.49325 126.528 3.40945 126.164 3.40945C125.763 3.40945 125.417 3.50888 125.124 3.70774C124.835 3.90376 124.612 4.15945 124.455 4.47479C124.299 4.79013 124.221 5.1282 124.221 5.48899V6.06854C124.221 6.56286 124.306 6.98189 124.477 7.32564C124.65 7.66655 124.89 7.92649 125.197 8.10547C125.504 8.28161 125.86 8.36967 126.266 8.36967C126.531 8.36967 126.769 8.33274 126.982 8.25888C127.198 8.18217 127.384 8.06854 127.54 7.91797C127.697 7.76456 127.817 7.57422 127.903 7.34695L128.874 7.61967C128.772 7.94922 128.6 8.23899 128.359 8.48899C128.117 8.73615 127.819 8.92933 127.464 9.06854C127.109 9.2049 126.71 9.27308 126.266 9.27308ZM133.165 9.27308C132.575 9.27308 132.056 9.13246 131.61 8.85121C131.167 8.56996 130.82 8.17649 130.57 7.67081C130.323 7.16513 130.2 6.57422 130.2 5.89808C130.2 5.21626 130.323 4.62109 130.57 4.11257C130.82 3.60405 131.167 3.20916 131.61 2.92791C132.056 2.64666 132.575 2.50604 133.165 2.50604C133.756 2.50604 134.273 2.64666 134.717 2.92791C135.163 3.20916 135.509 3.60405 135.756 4.11257C136.006 4.62109 136.131 5.21626 136.131 5.89808C136.131 6.57422 136.006 7.16513 135.756 7.67081C135.509 8.17649 135.163 8.56996 134.717 8.85121C134.273 9.13246 133.756 9.27308 133.165 9.27308ZM133.165 8.36967C133.614 8.36967 133.984 8.25462 134.273 8.0245C134.563 7.79439 134.778 7.49183 134.917 7.11683C135.056 6.74183 135.126 6.33558 135.126 5.89808C135.126 5.46058 135.056 5.05291 134.917 4.67507C134.778 4.29723 134.563 3.99183 134.273 3.75888C133.984 3.52592 133.614 3.40945 133.165 3.40945C132.717 3.40945 132.347 3.52592 132.058 3.75888C131.768 3.99183 131.553 4.29723 131.414 4.67507C131.275 5.05291 131.205 5.46058 131.205 5.89808C131.205 6.33558 131.275 6.74183 131.414 7.11683C131.553 7.49183 131.768 7.79439 132.058 8.0245C132.347 8.25462 132.717 8.36967 133.165 8.36967ZM138.672 5.19922V9.13672H137.667V2.59126H138.638V3.61399H138.723C138.877 3.28161 139.11 3.01456 139.422 2.81286C139.735 2.60831 140.138 2.50604 140.632 2.50604C141.076 2.50604 141.463 2.59695 141.796 2.77876C142.128 2.95774 142.387 3.23047 142.571 3.59695C142.756 3.96058 142.848 4.42081 142.848 4.97763V9.13672H141.843V5.04581C141.843 4.53161 141.709 4.13104 141.442 3.8441C141.175 3.55433 140.809 3.40945 140.343 3.40945C140.022 3.40945 139.735 3.47905 139.482 3.61825C139.232 3.75746 139.034 3.96058 138.89 4.22763C138.745 4.49467 138.672 4.81854 138.672 5.19922ZM147.43 9.27308C146.8 9.27308 146.256 9.13388 145.798 8.85547C145.344 8.57422 144.993 8.18217 144.746 7.67933C144.501 7.17365 144.379 6.58558 144.379 5.91513C144.379 5.24467 144.501 4.65376 144.746 4.1424C144.993 3.6282 145.337 3.22763 145.777 2.9407C146.22 2.65092 146.737 2.50604 147.328 2.50604C147.669 2.50604 148.006 2.56286 148.338 2.67649C148.67 2.79013 148.973 2.97479 149.246 3.23047C149.518 3.48331 149.736 3.81854 149.898 4.23615C150.06 4.65376 150.141 5.16797 150.141 5.77876V6.2049H145.095V5.33558H149.118C149.118 4.96626 149.044 4.63672 148.896 4.34695C148.751 4.05717 148.544 3.82848 148.274 3.66087C148.007 3.49325 147.692 3.40945 147.328 3.40945C146.928 3.40945 146.581 3.50888 146.288 3.70774C145.999 3.90376 145.776 4.15945 145.619 4.47479C145.463 4.79013 145.385 5.1282 145.385 5.48899V6.06854C145.385 6.56286 145.47 6.98189 145.641 7.32564C145.814 7.66655 146.054 7.92649 146.361 8.10547C146.668 8.28161 147.024 8.36967 147.43 8.36967C147.695 8.36967 147.933 8.33274 148.146 8.25888C148.362 8.18217 148.548 8.06854 148.705 7.91797C148.861 7.76456 148.982 7.57422 149.067 7.34695L150.038 7.61967C149.936 7.94922 149.764 8.23899 149.523 8.48899C149.281 8.73615 148.983 8.92933 148.628 9.06854C148.273 9.2049 147.874 9.27308 147.43 9.27308ZM154.432 0.290128C154.79 0.292969 155.148 0.36115 155.506 0.494673C155.864 0.628196 156.19 0.849787 156.486 1.15945C156.781 1.46626 157.018 1.8853 157.197 2.41655C157.376 2.9478 157.466 3.61399 157.466 4.41513C157.466 5.1907 157.392 5.87962 157.244 6.48189C157.099 7.08132 156.889 7.587 156.614 7.99893C156.341 8.41087 156.009 8.72337 155.616 8.93643C155.227 9.1495 154.787 9.25604 154.295 9.25604C153.807 9.25604 153.371 9.15945 152.987 8.96626C152.607 8.77024 152.294 8.49893 152.05 8.15234C151.808 7.80291 151.653 7.39808 151.585 6.93786H152.625C152.719 7.33842 152.905 7.66939 153.183 7.93075C153.464 8.18928 153.835 8.31854 154.295 8.31854C154.969 8.31854 155.5 8.0245 155.889 7.43643C156.281 6.84837 156.477 6.0174 156.477 4.94354H156.409C156.25 5.18217 156.061 5.38814 155.842 5.56143C155.624 5.73473 155.381 5.86825 155.114 5.962C154.847 6.05575 154.563 6.10263 154.261 6.10263C153.761 6.10263 153.303 5.97905 152.885 5.73189C152.47 5.48189 152.138 5.13956 151.888 4.7049C151.641 4.2674 151.517 3.7674 151.517 3.2049C151.517 2.67081 151.636 2.18217 151.875 1.73899C152.116 1.29297 152.455 0.937855 152.889 0.673651C153.327 0.409446 153.841 0.281605 154.432 0.290128ZM154.432 1.22763C154.074 1.22763 153.751 1.31712 153.464 1.49609C153.18 1.67223 152.955 1.91087 152.787 2.212C152.622 2.5103 152.54 2.84126 152.54 3.2049C152.54 3.56854 152.619 3.8995 152.778 4.1978C152.94 4.49325 153.161 4.72905 153.439 4.90518C153.72 5.07848 154.04 5.16513 154.398 5.16513C154.668 5.16513 154.919 5.11257 155.152 5.00746C155.385 4.8995 155.588 4.7532 155.761 4.56854C155.938 4.38104 156.075 4.16939 156.175 3.93359C156.274 3.69496 156.324 3.44638 156.324 3.18785C156.324 2.84695 156.241 2.52734 156.077 2.22905C155.915 1.93075 155.69 1.68928 155.403 1.50462C155.119 1.31996 154.795 1.22763 154.432 1.22763ZM161.92 0.290128C162.278 0.292969 162.636 0.36115 162.994 0.494673C163.352 0.628196 163.679 0.849787 163.974 1.15945C164.27 1.46626 164.507 1.8853 164.686 2.41655C164.865 2.9478 164.954 3.61399 164.954 4.41513C164.954 5.1907 164.88 5.87962 164.733 6.48189C164.588 7.08132 164.377 7.587 164.102 7.99893C163.829 8.41087 163.497 8.72337 163.105 8.93643C162.716 9.1495 162.275 9.25604 161.784 9.25604C161.295 9.25604 160.859 9.15945 160.475 8.96626C160.095 8.77024 159.782 8.49893 159.538 8.15234C159.297 7.80291 159.142 7.39808 159.074 6.93786H160.113C160.207 7.33842 160.393 7.66939 160.672 7.93075C160.953 8.18928 161.324 8.31854 161.784 8.31854C162.457 8.31854 162.988 8.0245 163.377 7.43643C163.77 6.84837 163.966 6.0174 163.966 4.94354H163.897C163.738 5.18217 163.549 5.38814 163.331 5.56143C163.112 5.73473 162.869 5.86825 162.602 5.962C162.335 6.05575 162.051 6.10263 161.75 6.10263C161.25 6.10263 160.791 5.97905 160.373 5.73189C159.958 5.48189 159.626 5.13956 159.376 4.7049C159.129 4.2674 159.005 3.7674 159.005 3.2049C159.005 2.67081 159.125 2.18217 159.363 1.73899C159.605 1.29297 159.943 0.937855 160.377 0.673651C160.815 0.409446 161.329 0.281605 161.92 0.290128ZM161.92 1.22763C161.562 1.22763 161.24 1.31712 160.953 1.49609C160.669 1.67223 160.443 1.91087 160.275 2.212C160.11 2.5103 160.028 2.84126 160.028 3.2049C160.028 3.56854 160.108 3.8995 160.267 4.1978C160.429 4.49325 160.649 4.72905 160.927 4.90518C161.208 5.07848 161.528 5.16513 161.886 5.16513C162.156 5.16513 162.407 5.11257 162.64 5.00746C162.873 4.8995 163.076 4.7532 163.25 4.56854C163.426 4.38104 163.564 4.16939 163.663 3.93359C163.762 3.69496 163.812 3.44638 163.812 3.18785C163.812 2.84695 163.73 2.52734 163.565 2.22905C163.403 1.93075 163.179 1.68928 162.892 1.50462C162.608 1.31996 162.284 1.22763 161.92 1.22763ZM169.408 0.290128C169.766 0.292969 170.124 0.36115 170.482 0.494673C170.84 0.628196 171.167 0.849787 171.462 1.15945C171.758 1.46626 171.995 1.8853 172.174 2.41655C172.353 2.9478 172.442 3.61399 172.442 4.41513C172.442 5.1907 172.369 5.87962 172.221 6.48189C172.076 7.08132 171.866 7.587 171.59 7.99893C171.317 8.41087 170.985 8.72337 170.593 8.93643C170.204 9.1495 169.763 9.25604 169.272 9.25604C168.783 9.25604 168.347 9.15945 167.964 8.96626C167.583 8.77024 167.271 8.49893 167.026 8.15234C166.785 7.80291 166.63 7.39808 166.562 6.93786H167.602C167.695 7.33842 167.881 7.66939 168.16 7.93075C168.441 8.18928 168.812 8.31854 169.272 8.31854C169.945 8.31854 170.477 8.0245 170.866 7.43643C171.258 6.84837 171.454 6.0174 171.454 4.94354H171.386C171.227 5.18217 171.038 5.38814 170.819 5.56143C170.6 5.73473 170.357 5.86825 170.09 5.962C169.823 6.05575 169.539 6.10263 169.238 6.10263C168.738 6.10263 168.279 5.97905 167.862 5.73189C167.447 5.48189 167.114 5.13956 166.864 4.7049C166.617 4.2674 166.494 3.7674 166.494 3.2049C166.494 2.67081 166.613 2.18217 166.852 1.73899C167.093 1.29297 167.431 0.937855 167.866 0.673651C168.303 0.409446 168.817 0.281605 169.408 0.290128ZM169.408 1.22763C169.05 1.22763 168.728 1.31712 168.441 1.49609C168.157 1.67223 167.931 1.91087 167.763 2.212C167.599 2.5103 167.516 2.84126 167.516 3.2049C167.516 3.56854 167.596 3.8995 167.755 4.1978C167.917 4.49325 168.137 4.72905 168.415 4.90518C168.697 5.07848 169.016 5.16513 169.374 5.16513C169.644 5.16513 169.896 5.11257 170.129 5.00746C170.362 4.8995 170.565 4.7532 170.738 4.56854C170.914 4.38104 171.052 4.16939 171.151 3.93359C171.251 3.69496 171.3 3.44638 171.3 3.18785C171.3 2.84695 171.218 2.52734 171.053 2.22905C170.891 1.93075 170.667 1.68928 170.38 1.50462C170.096 1.31996 169.772 1.22763 169.408 1.22763Z" fill="white"/>
<path d="M0 11.5231H15.9084V12.3413H0V11.5231ZM18.5526 11.5231H42.6818V12.3413H18.5526V11.5231ZM46.9276 11.5231H116.315V12.3413H46.9276V11.5231ZM119.107 11.5231H173.21V12.3413H119.107V11.5231Z" fill="white"/>
<a href="https://github.com/hyeone999">
<rect fill="black" fill-opacity="0" y="0.238636" width="173.21" height="14.5227"/>
</a>
</svg>
