<svg width="48" height="48" viewBox="0 0 48 48" fill="none" xmlns="http://www.w3.org/2000/svg">
<g clip-path="url(#clip0_4122_47898)">
<path fill-rule="evenodd" clip-rule="evenodd" d="M24.0099 12C17.3687 12 12 17.4083 12 24.0992C12 29.4475 15.4399 33.9748 20.2121 35.5771C20.8087 35.6976 21.0272 35.3168 21.0272 34.9965C21.0272 34.716 21.0076 33.7545 21.0076 32.7527C17.6667 33.474 16.971 31.3104 16.971 31.3104C16.4341 29.9082 15.6386 29.5478 15.6386 29.5478C14.5451 28.8066 15.7182 28.8066 15.7182 28.8066C16.9312 28.8868 17.5676 30.0486 17.5676 30.0486C18.6412 31.8913 20.3711 31.3707 21.0671 31.0501C21.1664 30.2688 21.4847 29.728 21.8228 29.4276C19.1582 29.1471 16.3547 28.1055 16.3547 23.458C16.3547 22.1359 16.8316 21.0543 17.5873 20.213C17.4681 19.9126 17.0504 18.6704 17.7068 17.0079C17.7068 17.0079 18.7208 16.6873 21.0073 18.2498C21.9863 17.985 22.9958 17.8502 24.0099 17.8491C25.024 17.8491 26.0577 17.9895 27.0123 18.2498C29.299 16.6873 30.3131 17.0079 30.3131 17.0079C30.9695 18.6704 30.5515 19.9126 30.4323 20.213C31.2079 21.0543 31.6652 22.1359 31.6652 23.458C31.6652 28.1055 28.8617 29.1269 26.1772 29.4276C26.6148 29.8081 26.9924 30.5292 26.9924 31.6711C26.9924 33.2936 26.9727 34.5957 26.9727 34.9962C26.9727 35.3168 27.1915 35.6976 27.7879 35.5774C32.56 33.9745 35.9999 29.4475 35.9999 24.0992C36.0196 17.4083 30.6312 12 24.0099 12Z" fill="white"/>
</g>
<defs>
<clipPath id="clip0_4122_47898">
<rect width="24" height="24" fill="white" transform="translate(12 12)"/>
</clipPath>
</defs>
</svg>
