<svg width="248" height="64" viewBox="0 0 248 64" fill="none" xmlns="http://www.w3.org/2000/svg">
<g filter="url(#filter0_diii_4278_41440)">
<rect x="4" y="2" width="240" height="56" rx="28" fill="#FF6C9A" shape-rendering="crispEdges"/>
<path d="M67.2045 30.763C67.2166 29.8431 67.4669 28.9411 67.9321 28.141C68.3972 27.3409 69.0621 26.6687 69.8648 26.1869C69.3548 25.4758 68.6821 24.8907 67.9 24.4779C67.1178 24.065 66.2479 23.836 65.3592 23.8088C63.4635 23.6146 61.6258 24.9163 60.6598 24.9163C59.6751 24.9163 58.1878 23.8281 56.5862 23.8603C55.5502 23.893 54.5406 24.1871 53.6557 24.714C52.7708 25.2408 52.0407 25.9825 51.5367 26.8668C49.3535 30.5571 50.982 35.9808 53.0734 38.9639C54.1197 40.4246 55.3426 42.0562 56.9428 41.9984C58.5086 41.9349 59.0934 41.0235 60.9835 41.0235C62.8561 41.0235 63.4048 41.9984 65.0374 41.9616C66.7176 41.9349 67.7762 40.4944 68.7859 39.0198C69.5377 37.979 70.1162 36.8287 70.5 35.6115C69.5238 35.2084 68.6908 34.5337 68.1048 33.6715C67.5187 32.8093 67.2056 31.7977 67.2045 30.763Z" fill="white"/>
<path d="M64.122 21.8471C65.0381 20.7734 65.4895 19.3934 65.3802 18C63.9806 18.1435 62.6877 18.7966 61.7592 19.8291C61.3052 20.3335 60.9575 20.9203 60.736 21.556C60.5145 22.1917 60.4234 22.8638 60.4681 23.5338C61.1681 23.5408 61.8607 23.3927 62.4936 23.1005C63.1266 22.8084 63.6833 22.3798 64.122 21.8471Z" fill="white"/>
<path d="M87.8038 21.58C88.1505 21.58 88.4505 21.66 88.7038 21.82C88.9572 21.98 89.1772 22.2933 89.3638 22.76L93.8638 34.36C94.0105 34.7467 94.0105 35.08 93.8638 35.36C93.7172 35.64 93.4772 35.8333 93.1438 35.94C92.8105 36.0467 92.4772 36.06 92.1438 35.98C91.8238 35.9 91.5905 35.6467 91.4438 35.22L90.2838 32.02H85.2438L84.0638 35.3C83.9172 35.6867 83.6905 35.92 83.3838 36C83.0905 36.0667 82.7838 36.0467 82.4638 35.94C82.1438 35.8333 81.9105 35.6533 81.7638 35.4C81.6172 35.1467 81.6172 34.8333 81.7638 34.46L86.2638 22.76C86.4372 22.2933 86.6505 21.98 86.9038 21.82C87.1705 21.66 87.4705 21.58 87.8038 21.58ZM87.7638 24.78C87.6572 25.18 87.5505 25.54 87.4438 25.86C87.3505 26.1667 87.2238 26.5467 87.0638 27L86.0038 29.9H89.5238L88.4838 27C88.3105 26.5333 88.1705 26.1333 88.0638 25.8C87.9705 25.4667 87.8705 25.1267 87.7638 24.78ZM101.772 25.06C103.226 25.06 104.306 25.5067 105.012 26.4C105.719 27.28 106.072 28.58 106.072 30.3V30.82C106.072 31.6867 105.966 32.4533 105.752 33.12C105.539 33.7733 105.239 34.32 104.852 34.76C104.466 35.2 103.999 35.5333 103.452 35.76C102.919 35.9733 102.319 36.08 101.652 36.08C100.972 36.08 100.392 35.9667 99.9124 35.74C99.4324 35.5 99.0458 35.1867 98.7524 34.8V38.86C98.7524 39.22 98.6258 39.4867 98.3724 39.66C98.1191 39.8333 97.8258 39.92 97.4924 39.92C97.1724 39.92 96.8791 39.8333 96.6124 39.66C96.3591 39.4867 96.2324 39.22 96.2324 38.86V26.2C96.2324 25.8533 96.3524 25.6 96.5924 25.44C96.8458 25.2667 97.1258 25.18 97.4324 25.18C97.7524 25.18 98.0324 25.2667 98.2724 25.44C98.5258 25.6 98.6524 25.8533 98.6524 26.2V26.5C98.8391 26.22 99.0591 25.9867 99.3124 25.8C99.5658 25.6133 99.8324 25.4667 100.112 25.36C100.392 25.2533 100.672 25.18 100.952 25.14C101.232 25.0867 101.506 25.06 101.772 25.06ZM101.272 27.22C100.432 27.22 99.7924 27.4667 99.3524 27.96C98.9258 28.44 98.7124 29.06 98.7124 29.82V31.68C98.7124 31.96 98.7791 32.2333 98.9124 32.5C99.0458 32.7667 99.2258 33.0067 99.4524 33.22C99.6791 33.4333 99.9524 33.6067 100.272 33.74C100.592 33.8733 100.946 33.94 101.332 33.94C102.826 33.94 103.572 32.88 103.572 30.76V30.36C103.572 29.32 103.399 28.54 103.052 28.02C102.706 27.4867 102.112 27.22 101.272 27.22ZM114.038 25.06C115.491 25.06 116.571 25.5067 117.278 26.4C117.985 27.28 118.338 28.58 118.338 30.3V30.82C118.338 31.6867 118.231 32.4533 118.018 33.12C117.805 33.7733 117.505 34.32 117.118 34.76C116.731 35.2 116.265 35.5333 115.718 35.76C115.185 35.9733 114.585 36.08 113.918 36.08C113.238 36.08 112.658 35.9667 112.178 35.74C111.698 35.5 111.311 35.1867 111.018 34.8V38.86C111.018 39.22 110.891 39.4867 110.638 39.66C110.385 39.8333 110.091 39.92 109.758 39.92C109.438 39.92 109.145 39.8333 108.878 39.66C108.625 39.4867 108.498 39.22 108.498 38.86V26.2C108.498 25.8533 108.618 25.6 108.858 25.44C109.111 25.2667 109.391 25.18 109.698 25.18C110.018 25.18 110.298 25.2667 110.538 25.44C110.791 25.6 110.918 25.8533 110.918 26.2V26.5C111.105 26.22 111.325 25.9867 111.578 25.8C111.831 25.6133 112.098 25.4667 112.378 25.36C112.658 25.2533 112.938 25.18 113.218 25.14C113.498 25.0867 113.771 25.06 114.038 25.06ZM113.538 27.22C112.698 27.22 112.058 27.4667 111.618 27.96C111.191 28.44 110.978 29.06 110.978 29.82V31.68C110.978 31.96 111.045 32.2333 111.178 32.5C111.311 32.7667 111.491 33.0067 111.718 33.22C111.945 33.4333 112.218 33.6067 112.538 33.74C112.858 33.8733 113.211 33.94 113.598 33.94C115.091 33.94 115.838 32.88 115.838 30.76V30.36C115.838 29.32 115.665 28.54 115.318 28.02C114.971 27.4867 114.378 27.22 113.538 27.22ZM128.564 23.86C128.257 23.86 128.104 24.0133 128.104 24.32V30.6C128.104 30.9067 128.257 31.06 128.564 31.06C129.697 31.06 130.777 31.0333 131.804 30.98C132.844 30.9133 133.85 30.8133 134.824 30.68C135.13 30.64 135.37 30.7133 135.544 30.9C135.73 31.0867 135.837 31.3267 135.864 31.62C135.89 31.9267 135.85 32.2 135.744 32.44C135.637 32.6667 135.437 32.8 135.144 32.84C134.73 32.8933 134.27 32.9467 133.764 33C133.27 33.04 132.704 33.08 132.064 33.12C131.424 33.16 130.704 33.1933 129.904 33.22C129.117 33.2333 128.23 33.24 127.244 33.24C126.604 33.24 126.157 33.12 125.904 32.88C125.664 32.64 125.544 32.2067 125.544 31.58V23.34C125.544 22.7133 125.664 22.28 125.904 22.04C126.157 21.8 126.604 21.68 127.244 21.68H133.564C133.87 21.68 134.097 21.7867 134.244 22C134.39 22.2133 134.464 22.4733 134.464 22.78C134.464 23.0733 134.39 23.3267 134.244 23.54C134.097 23.7533 133.87 23.86 133.564 23.86H128.564ZM141.244 26.24C141.564 26.24 141.797 26.3467 141.944 26.56C142.09 26.7733 142.164 27.0333 142.164 27.34C142.164 27.6467 142.09 27.9133 141.944 28.14C141.797 28.3533 141.564 28.46 141.244 28.46H139.364V36.74C139.364 37.1133 139.23 37.3867 138.964 37.56C138.71 37.7333 138.417 37.82 138.084 37.82C137.75 37.82 137.45 37.7333 137.184 37.56C136.93 37.3867 136.804 37.1133 136.804 36.74V21.42C136.804 21.0467 136.93 20.7733 137.184 20.6C137.45 20.4267 137.75 20.34 138.084 20.34C138.417 20.34 138.71 20.4267 138.964 20.6C139.23 20.7733 139.364 21.0467 139.364 21.42V26.24H141.244ZM145.307 24.54C145.307 23.9 145.447 23.3467 145.727 22.88C146.02 22.4133 146.433 22.0267 146.967 21.72C147.513 21.4133 148.173 21.1867 148.947 21.04C149.72 20.88 150.593 20.8 151.567 20.8C152.54 20.8 153.413 20.88 154.187 21.04C154.96 21.1867 155.613 21.4133 156.147 21.72C156.693 22.0267 157.107 22.4133 157.387 22.88C157.68 23.3467 157.827 23.9 157.827 24.54C157.827 25.18 157.68 25.7333 157.387 26.2C157.107 26.6667 156.693 27.0533 156.147 27.36C155.613 27.6667 154.96 27.9 154.187 28.06C153.413 28.2067 152.54 28.28 151.567 28.28C150.593 28.28 149.72 28.2067 148.947 28.06C148.173 27.9 147.513 27.6667 146.967 27.36C146.433 27.0533 146.02 26.6667 145.727 26.2C145.447 25.7333 145.307 25.18 145.307 24.54ZM155.287 24.54C155.287 24.0333 155 23.6333 154.427 23.34C153.853 23.0467 152.9 22.9 151.567 22.9C150.233 22.9 149.28 23.0467 148.707 23.34C148.133 23.6333 147.847 24.0333 147.847 24.54C147.847 25.0467 148.133 25.4467 148.707 25.74C149.28 26.0333 150.233 26.18 151.567 26.18C152.9 26.18 153.853 26.0333 154.427 25.74C155 25.4467 155.287 25.0467 155.287 24.54ZM144.007 31.66C143.7 31.66 143.473 31.5533 143.327 31.34C143.18 31.1267 143.107 30.88 143.107 30.6C143.107 30.3067 143.18 30.0533 143.327 29.84C143.473 29.6267 143.7 29.52 144.007 29.52H159.127C159.433 29.52 159.66 29.6267 159.807 29.84C159.953 30.0533 160.027 30.3067 160.027 30.6C160.027 30.88 159.953 31.1267 159.807 31.34C159.66 31.5533 159.433 31.66 159.127 31.66H153.107V34.02C153.107 34.3667 152.98 34.62 152.727 34.78C152.487 34.9267 152.187 35 151.827 35C151.48 35 151.18 34.9267 150.927 34.78C150.687 34.62 150.567 34.3667 150.567 34.02V31.66H144.007ZM157.287 36.66C157.593 36.66 157.82 36.7667 157.967 36.98C158.113 37.1933 158.187 37.4467 158.187 37.74C158.187 38.0333 158.113 38.2867 157.967 38.5C157.82 38.7133 157.593 38.82 157.287 38.82H146.967C146.327 38.82 145.88 38.7 145.627 38.46C145.387 38.22 145.267 37.7867 145.267 37.16V34.06C145.267 33.6867 145.393 33.4133 145.647 33.24C145.913 33.0667 146.22 32.98 146.567 32.98C146.9 32.98 147.193 33.0667 147.447 33.24C147.713 33.4133 147.847 33.6867 147.847 34.06V36.2C147.847 36.5067 148 36.66 148.307 36.66H157.287ZM174.27 21.38C174.91 21.38 175.35 21.5 175.59 21.74C175.843 21.98 175.97 22.4133 175.97 23.04V25.72C175.97 26.3467 175.843 26.78 175.59 27.02C175.35 27.26 174.91 27.38 174.27 27.38H166.51C166.203 27.38 166.05 27.5333 166.05 27.84V28.7C166.05 29.0067 166.203 29.16 166.51 29.16H175.47C175.777 29.16 176.003 29.2667 176.15 29.48C176.297 29.6933 176.37 29.9467 176.37 30.24C176.37 30.5333 176.297 30.7867 176.15 31C176.003 31.2133 175.777 31.32 175.47 31.32H165.23C164.59 31.32 164.143 31.2 163.89 30.96C163.65 30.72 163.53 30.2867 163.53 29.66V26.96C163.53 26.3333 163.65 25.9 163.89 25.66C164.143 25.42 164.59 25.3 165.23 25.3H172.99C173.297 25.3 173.45 25.1467 173.45 24.84V24C173.45 23.6933 173.297 23.54 172.99 23.54H164.39C164.083 23.54 163.857 23.4333 163.71 23.22C163.563 23.0067 163.49 22.7533 163.49 22.46C163.49 22.1667 163.563 21.9133 163.71 21.7C163.857 21.4867 164.083 21.38 164.39 21.38H174.27ZM162.21 36.18C161.903 36.18 161.677 36.0733 161.53 35.86C161.383 35.6467 161.31 35.3933 161.31 35.1C161.31 34.8067 161.383 34.5533 161.53 34.34C161.677 34.1267 161.903 34.02 162.21 34.02H168.49V30.24H171.05V34.02H177.33C177.637 34.02 177.863 34.1267 178.01 34.34C178.157 34.5533 178.23 34.8067 178.23 35.1C178.23 35.3933 178.157 35.6467 178.01 35.86C177.863 36.0733 177.637 36.18 177.33 36.18H162.21ZM184.713 23.7C184.406 23.7 184.253 23.8533 184.253 24.16V28.02C184.253 28.3267 184.406 28.48 184.713 28.48H193.493C193.8 28.48 194.026 28.5867 194.173 28.8C194.32 29.0133 194.393 29.2667 194.393 29.56C194.393 29.8533 194.32 30.1067 194.173 30.32C194.026 30.5333 193.8 30.64 193.493 30.64H183.373C182.733 30.64 182.286 30.52 182.033 30.28C181.793 30.04 181.673 29.6067 181.673 28.98V23.2C181.673 22.5733 181.793 22.14 182.033 21.9C182.286 21.66 182.733 21.54 183.373 21.54H193.293C193.6 21.54 193.826 21.6467 193.973 21.86C194.12 22.0733 194.193 22.3267 194.193 22.62C194.193 22.9133 194.12 23.1667 193.973 23.38C193.826 23.5933 193.6 23.7 193.293 23.7H184.713ZM180.413 36.18C180.106 36.18 179.88 36.0733 179.733 35.86C179.586 35.6467 179.513 35.3933 179.513 35.1C179.513 34.7933 179.586 34.5333 179.733 34.32C179.88 34.1067 180.106 34 180.413 34H195.533C195.84 34 196.066 34.1067 196.213 34.32C196.36 34.5333 196.433 34.7933 196.433 35.1C196.433 35.3933 196.36 35.6467 196.213 35.86C196.066 36.0733 195.84 36.18 195.533 36.18H180.413Z" fill="white"/>
</g>
<defs>
<filter id="filter0_diii_4278_41440" x="0" y="-2" width="248" height="66" filterUnits="userSpaceOnUse" color-interpolation-filters="sRGB">
<feFlood flood-opacity="0" result="BackgroundImageFix"/>
<feColorMatrix in="SourceAlpha" type="matrix" values="0 0 0 0 0 0 0 0 0 0 0 0 0 0 0 0 0 0 127 0" result="hardAlpha"/>
<feOffset dy="2"/>
<feGaussianBlur stdDeviation="2"/>
<feComposite in2="hardAlpha" operator="out"/>
<feColorMatrix type="matrix" values="0 0 0 0 0 0 0 0 0 0 0 0 0 0 0 0 0 0 0.2 0"/>
<feBlend mode="normal" in2="BackgroundImageFix" result="effect1_dropShadow_4278_41440"/>
<feBlend mode="normal" in="SourceGraphic" in2="effect1_dropShadow_4278_41440" result="shape"/>
<feColorMatrix in="SourceAlpha" type="matrix" values="0 0 0 0 0 0 0 0 0 0 0 0 0 0 0 0 0 0 127 0" result="hardAlpha"/>
<feOffset dx="2" dy="4"/>
<feGaussianBlur stdDeviation="4"/>
<feComposite in2="hardAlpha" operator="arithmetic" k2="-1" k3="1"/>
<feColorMatrix type="matrix" values="0 0 0 0 1 0 0 0 0 1 0 0 0 0 1 0 0 0 0.25 0"/>
<feBlend mode="normal" in2="shape" result="effect2_innerShadow_4278_41440"/>
<feColorMatrix in="SourceAlpha" type="matrix" values="0 0 0 0 0 0 0 0 0 0 0 0 0 0 0 0 0 0 127 0" result="hardAlpha"/>
<feOffset dx="-2" dy="-2"/>
<feGaussianBlur stdDeviation="4"/>
<feComposite in2="hardAlpha" operator="arithmetic" k2="-1" k3="1"/>
<feColorMatrix type="matrix" values="0 0 0 0 0 0 0 0 0 0 0 0 0 0 0 0 0 0 0.2 0"/>
<feBlend mode="normal" in2="effect2_innerShadow_4278_41440" result="effect3_innerShadow_4278_41440"/>
<feColorMatrix in="SourceAlpha" type="matrix" values="0 0 0 0 0 0 0 0 0 0 0 0 0 0 0 0 0 0 127 0" result="hardAlpha"/>
<feOffset dx="-2" dy="-4"/>
<feGaussianBlur stdDeviation="6"/>
<feComposite in2="hardAlpha" operator="arithmetic" k2="-1" k3="1"/>
<feColorMatrix type="matrix" values="0 0 0 0 1 0 0 0 0 1 0 0 0 0 1 0 0 0 0.1 0"/>
<feBlend mode="normal" in2="effect3_innerShadow_4278_41440" result="effect4_innerShadow_4278_41440"/>
</filter>
</defs>
</svg>
