<svg width="240" height="56" viewBox="20 20 240 56" fill="none" xmlns="http://www.w3.org/2000/svg">
<rect x="20" y="20" width="240" height="56" rx="28" fill="#FF6C9A"/>
<path d="M83.2045 48.763C83.2166 47.8431 83.4669 46.9411 83.9321 46.141C84.3972 45.3409 85.0621 44.6687 85.8648 44.1869C85.3548 43.4758 84.6821 42.8907 83.9 42.4779C83.1178 42.065 82.2479 41.836 81.3592 41.8088C79.4635 41.6146 77.6258 42.9163 76.6598 42.9163C75.6751 42.9163 74.1878 41.8281 72.5862 41.8603C71.5502 41.893 70.5406 42.1871 69.6557 42.714C68.7708 43.2408 68.0407 43.9825 67.5367 44.8668C65.3535 48.5571 66.982 53.9808 69.0734 56.9639C70.1197 58.4246 71.3426 60.0562 72.9428 59.9984C74.5086 59.9349 75.0934 59.0235 76.9835 59.0235C78.8561 59.0235 79.4048 59.9984 81.0374 59.9616C82.7176 59.9349 83.7762 58.4944 84.7859 57.0198C85.5377 55.979 86.1162 54.8287 86.5 53.6115C85.5238 53.2084 84.6908 52.5337 84.1048 51.6715C83.5187 50.8093 83.2056 49.7977 83.2045 48.763Z" fill="white"/>
<path d="M80.1201 39.8471C81.0362 38.7734 81.4875 37.3934 81.3782 36C79.9786 36.1435 78.6857 36.7966 77.7572 37.8291C77.3033 38.3335 76.9556 38.9203 76.734 39.556C76.5125 40.1917 76.4215 40.8638 76.4661 41.5338C77.1662 41.5408 77.8588 41.3927 78.4917 41.1005C79.1246 40.8084 79.6814 40.3798 80.1201 39.8471Z" fill="white"/>
<path d="M103.804 39.58C104.15 39.58 104.45 39.66 104.704 39.82C104.957 39.98 105.177 40.2933 105.364 40.76L109.864 52.36C110.01 52.7467 110.01 53.08 109.864 53.36C109.717 53.64 109.477 53.8333 109.144 53.94C108.81 54.0467 108.477 54.06 108.144 53.98C107.824 53.9 107.59 53.6467 107.444 53.22L106.284 50.02H101.244L100.064 53.3C99.9172 53.6867 99.6905 53.92 99.3838 54C99.0905 54.0667 98.7838 54.0467 98.4638 53.94C98.1438 53.8333 97.9105 53.6533 97.7638 53.4C97.6172 53.1467 97.6172 52.8333 97.7638 52.46L102.264 40.76C102.437 40.2933 102.65 39.98 102.904 39.82C103.17 39.66 103.47 39.58 103.804 39.58ZM103.764 42.78C103.657 43.18 103.55 43.54 103.444 43.86C103.35 44.1667 103.224 44.5467 103.064 45L102.004 47.9H105.524L104.484 45C104.31 44.5333 104.17 44.1333 104.064 43.8C103.97 43.4667 103.87 43.1267 103.764 42.78ZM117.772 43.06C119.226 43.06 120.306 43.5067 121.012 44.4C121.719 45.28 122.072 46.58 122.072 48.3V48.82C122.072 49.6867 121.966 50.4533 121.752 51.12C121.539 51.7733 121.239 52.32 120.852 52.76C120.466 53.2 119.999 53.5333 119.452 53.76C118.919 53.9733 118.319 54.08 117.652 54.08C116.972 54.08 116.392 53.9667 115.912 53.74C115.432 53.5 115.046 53.1867 114.752 52.8V56.86C114.752 57.22 114.626 57.4867 114.372 57.66C114.119 57.8333 113.826 57.92 113.492 57.92C113.172 57.92 112.879 57.8333 112.612 57.66C112.359 57.4867 112.232 57.22 112.232 56.86V44.2C112.232 43.8533 112.352 43.6 112.592 43.44C112.846 43.2667 113.126 43.18 113.432 43.18C113.752 43.18 114.032 43.2667 114.272 43.44C114.526 43.6 114.652 43.8533 114.652 44.2V44.5C114.839 44.22 115.059 43.9867 115.312 43.8C115.566 43.6133 115.832 43.4667 116.112 43.36C116.392 43.2533 116.672 43.18 116.952 43.14C117.232 43.0867 117.506 43.06 117.772 43.06ZM117.272 45.22C116.432 45.22 115.792 45.4667 115.352 45.96C114.926 46.44 114.712 47.06 114.712 47.82V49.68C114.712 49.96 114.779 50.2333 114.912 50.5C115.046 50.7667 115.226 51.0067 115.452 51.22C115.679 51.4333 115.952 51.6067 116.272 51.74C116.592 51.8733 116.946 51.94 117.332 51.94C118.826 51.94 119.572 50.88 119.572 48.76V48.36C119.572 47.32 119.399 46.54 119.052 46.02C118.706 45.4867 118.112 45.22 117.272 45.22ZM130.038 43.06C131.491 43.06 132.571 43.5067 133.278 44.4C133.985 45.28 134.338 46.58 134.338 48.3V48.82C134.338 49.6867 134.231 50.4533 134.018 51.12C133.805 51.7733 133.505 52.32 133.118 52.76C132.731 53.2 132.265 53.5333 131.718 53.76C131.185 53.9733 130.585 54.08 129.918 54.08C129.238 54.08 128.658 53.9667 128.178 53.74C127.698 53.5 127.311 53.1867 127.018 52.8V56.86C127.018 57.22 126.891 57.4867 126.638 57.66C126.385 57.8333 126.091 57.92 125.758 57.92C125.438 57.92 125.145 57.8333 124.878 57.66C124.625 57.4867 124.498 57.22 124.498 56.86V44.2C124.498 43.8533 124.618 43.6 124.858 43.44C125.111 43.2667 125.391 43.18 125.698 43.18C126.018 43.18 126.298 43.2667 126.538 43.44C126.791 43.6 126.918 43.8533 126.918 44.2V44.5C127.105 44.22 127.325 43.9867 127.578 43.8C127.831 43.6133 128.098 43.4667 128.378 43.36C128.658 43.2533 128.938 43.18 129.218 43.14C129.498 43.0867 129.771 43.06 130.038 43.06ZM129.538 45.22C128.698 45.22 128.058 45.4667 127.618 45.96C127.191 46.44 126.978 47.06 126.978 47.82V49.68C126.978 49.96 127.045 50.2333 127.178 50.5C127.311 50.7667 127.491 51.0067 127.718 51.22C127.945 51.4333 128.218 51.6067 128.538 51.74C128.858 51.8733 129.211 51.94 129.598 51.94C131.091 51.94 131.838 50.88 131.838 48.76V48.36C131.838 47.32 131.665 46.54 131.318 46.02C130.971 45.4867 130.378 45.22 129.538 45.22ZM144.564 41.86C144.257 41.86 144.104 42.0133 144.104 42.32V48.6C144.104 48.9067 144.257 49.06 144.564 49.06C145.697 49.06 146.777 49.0333 147.804 48.98C148.844 48.9133 149.85 48.8133 150.824 48.68C151.13 48.64 151.37 48.7133 151.544 48.9C151.73 49.0867 151.837 49.3267 151.864 49.62C151.89 49.9267 151.85 50.2 151.744 50.44C151.637 50.6667 151.437 50.8 151.144 50.84C150.73 50.8933 150.27 50.9467 149.764 51C149.27 51.04 148.704 51.08 148.064 51.12C147.424 51.16 146.704 51.1933 145.904 51.22C145.117 51.2333 144.23 51.24 143.244 51.24C142.604 51.24 142.157 51.12 141.904 50.88C141.664 50.64 141.544 50.2067 141.544 49.58V41.34C141.544 40.7133 141.664 40.28 141.904 40.04C142.157 39.8 142.604 39.68 143.244 39.68H149.564C149.87 39.68 150.097 39.7867 150.244 40C150.39 40.2133 150.464 40.4733 150.464 40.78C150.464 41.0733 150.39 41.3267 150.244 41.54C150.097 41.7533 149.87 41.86 149.564 41.86H144.564ZM157.244 44.24C157.564 44.24 157.797 44.3467 157.944 44.56C158.09 44.7733 158.164 45.0333 158.164 45.34C158.164 45.6467 158.09 45.9133 157.944 46.14C157.797 46.3533 157.564 46.46 157.244 46.46H155.364V54.74C155.364 55.1133 155.23 55.3867 154.964 55.56C154.71 55.7333 154.417 55.82 154.084 55.82C153.75 55.82 153.45 55.7333 153.184 55.56C152.93 55.3867 152.804 55.1133 152.804 54.74V39.42C152.804 39.0467 152.93 38.7733 153.184 38.6C153.45 38.4267 153.75 38.34 154.084 38.34C154.417 38.34 154.71 38.4267 154.964 38.6C155.23 38.7733 155.364 39.0467 155.364 39.42V44.24H157.244ZM161.307 42.54C161.307 41.9 161.447 41.3467 161.727 40.88C162.02 40.4133 162.433 40.0267 162.967 39.72C163.513 39.4133 164.173 39.1867 164.947 39.04C165.72 38.88 166.593 38.8 167.567 38.8C168.54 38.8 169.413 38.88 170.187 39.04C170.96 39.1867 171.613 39.4133 172.147 39.72C172.693 40.0267 173.107 40.4133 173.387 40.88C173.68 41.3467 173.827 41.9 173.827 42.54C173.827 43.18 173.68 43.7333 173.387 44.2C173.107 44.6667 172.693 45.0533 172.147 45.36C171.613 45.6667 170.96 45.9 170.187 46.06C169.413 46.2067 168.54 46.28 167.567 46.28C166.593 46.28 165.72 46.2067 164.947 46.06C164.173 45.9 163.513 45.6667 162.967 45.36C162.433 45.0533 162.02 44.6667 161.727 44.2C161.447 43.7333 161.307 43.18 161.307 42.54ZM171.287 42.54C171.287 42.0333 171 41.6333 170.427 41.34C169.853 41.0467 168.9 40.9 167.567 40.9C166.233 40.9 165.28 41.0467 164.707 41.34C164.133 41.6333 163.847 42.0333 163.847 42.54C163.847 43.0467 164.133 43.4467 164.707 43.74C165.28 44.0333 166.233 44.18 167.567 44.18C168.9 44.18 169.853 44.0333 170.427 43.74C171 43.4467 171.287 43.0467 171.287 42.54ZM160.007 49.66C159.7 49.66 159.473 49.5533 159.327 49.34C159.18 49.1267 159.107 48.88 159.107 48.6C159.107 48.3067 159.18 48.0533 159.327 47.84C159.473 47.6267 159.7 47.52 160.007 47.52H175.127C175.433 47.52 175.66 47.6267 175.807 47.84C175.953 48.0533 176.027 48.3067 176.027 48.6C176.027 48.88 175.953 49.1267 175.807 49.34C175.66 49.5533 175.433 49.66 175.127 49.66H169.107V52.02C169.107 52.3667 168.98 52.62 168.727 52.78C168.487 52.9267 168.187 53 167.827 53C167.48 53 167.18 52.9267 166.927 52.78C166.687 52.62 166.567 52.3667 166.567 52.02V49.66H160.007ZM173.287 54.66C173.593 54.66 173.82 54.7667 173.967 54.98C174.113 55.1933 174.187 55.4467 174.187 55.74C174.187 56.0333 174.113 56.2867 173.967 56.5C173.82 56.7133 173.593 56.82 173.287 56.82H162.967C162.327 56.82 161.88 56.7 161.627 56.46C161.387 56.22 161.267 55.7867 161.267 55.16V52.06C161.267 51.6867 161.393 51.4133 161.647 51.24C161.913 51.0667 162.22 50.98 162.567 50.98C162.9 50.98 163.193 51.0667 163.447 51.24C163.713 51.4133 163.847 51.6867 163.847 52.06V54.2C163.847 54.5067 164 54.66 164.307 54.66H173.287ZM190.27 39.38C190.91 39.38 191.35 39.5 191.59 39.74C191.843 39.98 191.97 40.4133 191.97 41.04V43.72C191.97 44.3467 191.843 44.78 191.59 45.02C191.35 45.26 190.91 45.38 190.27 45.38H182.51C182.203 45.38 182.05 45.5333 182.05 45.84V46.7C182.05 47.0067 182.203 47.16 182.51 47.16H191.47C191.777 47.16 192.003 47.2667 192.15 47.48C192.297 47.6933 192.37 47.9467 192.37 48.24C192.37 48.5333 192.297 48.7867 192.15 49C192.003 49.2133 191.777 49.32 191.47 49.32H181.23C180.59 49.32 180.143 49.2 179.89 48.96C179.65 48.72 179.53 48.2867 179.53 47.66V44.96C179.53 44.3333 179.65 43.9 179.89 43.66C180.143 43.42 180.59 43.3 181.23 43.3H188.99C189.297 43.3 189.45 43.1467 189.45 42.84V42C189.45 41.6933 189.297 41.54 188.99 41.54H180.39C180.083 41.54 179.857 41.4333 179.71 41.22C179.563 41.0067 179.49 40.7533 179.49 40.46C179.49 40.1667 179.563 39.9133 179.71 39.7C179.857 39.4867 180.083 39.38 180.39 39.38H190.27ZM178.21 54.18C177.903 54.18 177.677 54.0733 177.53 53.86C177.383 53.6467 177.31 53.3933 177.31 53.1C177.31 52.8067 177.383 52.5533 177.53 52.34C177.677 52.1267 177.903 52.02 178.21 52.02H184.49V48.24H187.05V52.02H193.33C193.637 52.02 193.863 52.1267 194.01 52.34C194.157 52.5533 194.23 52.8067 194.23 53.1C194.23 53.3933 194.157 53.6467 194.01 53.86C193.863 54.0733 193.637 54.18 193.33 54.18H178.21ZM200.713 41.7C200.406 41.7 200.253 41.8533 200.253 42.16V46.02C200.253 46.3267 200.406 46.48 200.713 46.48H209.493C209.8 46.48 210.026 46.5867 210.173 46.8C210.32 47.0133 210.393 47.2667 210.393 47.56C210.393 47.8533 210.32 48.1067 210.173 48.32C210.026 48.5333 209.8 48.64 209.493 48.64H199.373C198.733 48.64 198.286 48.52 198.033 48.28C197.793 48.04 197.673 47.6067 197.673 46.98V41.2C197.673 40.5733 197.793 40.14 198.033 39.9C198.286 39.66 198.733 39.54 199.373 39.54H209.293C209.6 39.54 209.826 39.6467 209.973 39.86C210.12 40.0733 210.193 40.3267 210.193 40.62C210.193 40.9133 210.12 41.1667 209.973 41.38C209.826 41.5933 209.6 41.7 209.293 41.7H200.713ZM196.413 54.18C196.106 54.18 195.88 54.0733 195.733 53.86C195.586 53.6467 195.513 53.3933 195.513 53.1C195.513 52.7933 195.586 52.5333 195.733 52.32C195.88 52.1067 196.106 52 196.413 52H211.533C211.84 52 212.066 52.1067 212.213 52.32C212.36 52.5333 212.433 52.7933 212.433 53.1C212.433 53.3933 212.36 53.6467 212.213 53.86C212.066 54.0733 211.84 54.18 211.533 54.18H196.413Z" fill="white"/>
</svg>
