<svg width="240" height="56" viewBox="315 20 240 56" fill="none" xmlns="http://www.w3.org/2000/svg">
<rect x="315" y="20" width="240" height="56" rx="28" fill="white"/>
<path d="M378.205 48.763C378.217 47.8431 378.467 46.9411 378.932 46.141C379.397 45.3409 380.062 44.6687 380.865 44.1869C380.355 43.4758 379.682 42.8907 378.9 42.4779C378.118 42.065 377.248 41.836 376.359 41.8088C374.464 41.6146 372.626 42.9163 371.66 42.9163C370.675 42.9163 369.188 41.8281 367.586 41.8603C366.55 41.893 365.541 42.1871 364.656 42.714C363.771 43.2408 363.041 43.9825 362.537 44.8668C360.354 48.5571 361.982 53.9808 364.073 56.9639C365.12 58.4246 366.343 60.0562 367.943 59.9984C369.509 59.9349 370.093 59.0235 371.984 59.0235C373.856 59.0235 374.405 59.9984 376.037 59.9616C377.718 59.9349 378.776 58.4944 379.786 57.0198C380.538 55.979 381.116 54.8287 381.5 53.6115C380.524 53.2084 379.691 52.5337 379.105 51.6715C378.519 50.8093 378.206 49.7977 378.205 48.763Z" fill="#FF6C9A"/>
<path d="M375.12 39.8471C376.036 38.7734 376.488 37.3934 376.378 36C374.979 36.1435 373.686 36.7966 372.757 37.8291C372.303 38.3335 371.956 38.9203 371.734 39.556C371.513 40.1917 371.421 40.8638 371.466 41.5338C372.166 41.5408 372.859 41.3927 373.492 41.1005C374.125 40.8084 374.681 40.3798 375.12 39.8471Z" fill="#FF6C9A"/>
<path d="M398.804 39.58C399.15 39.58 399.45 39.66 399.704 39.82C399.957 39.98 400.177 40.2933 400.364 40.76L404.864 52.36C405.01 52.7467 405.01 53.08 404.864 53.36C404.717 53.64 404.477 53.8333 404.144 53.94C403.81 54.0467 403.477 54.06 403.144 53.98C402.824 53.9 402.59 53.6467 402.444 53.22L401.284 50.02H396.244L395.064 53.3C394.917 53.6867 394.69 53.92 394.384 54C394.09 54.0667 393.784 54.0467 393.464 53.94C393.144 53.8333 392.91 53.6533 392.764 53.4C392.617 53.1467 392.617 52.8333 392.764 52.46L397.264 40.76C397.437 40.2933 397.65 39.98 397.904 39.82C398.17 39.66 398.47 39.58 398.804 39.58ZM398.764 42.78C398.657 43.18 398.55 43.54 398.444 43.86C398.35 44.1667 398.224 44.5467 398.064 45L397.004 47.9H400.524L399.484 45C399.31 44.5333 399.17 44.1333 399.064 43.8C398.97 43.4667 398.87 43.1267 398.764 42.78ZM412.772 43.06C414.226 43.06 415.306 43.5067 416.012 44.4C416.719 45.28 417.072 46.58 417.072 48.3V48.82C417.072 49.6867 416.966 50.4533 416.752 51.12C416.539 51.7733 416.239 52.32 415.852 52.76C415.466 53.2 414.999 53.5333 414.452 53.76C413.919 53.9733 413.319 54.08 412.652 54.08C411.972 54.08 411.392 53.9667 410.912 53.74C410.432 53.5 410.046 53.1867 409.752 52.8V56.86C409.752 57.22 409.626 57.4867 409.372 57.66C409.119 57.8333 408.826 57.92 408.492 57.92C408.172 57.92 407.879 57.8333 407.612 57.66C407.359 57.4867 407.232 57.22 407.232 56.86V44.2C407.232 43.8533 407.352 43.6 407.592 43.44C407.846 43.2667 408.126 43.18 408.432 43.18C408.752 43.18 409.032 43.2667 409.272 43.44C409.526 43.6 409.652 43.8533 409.652 44.2V44.5C409.839 44.22 410.059 43.9867 410.312 43.8C410.566 43.6133 410.832 43.4667 411.112 43.36C411.392 43.2533 411.672 43.18 411.952 43.14C412.232 43.0867 412.506 43.06 412.772 43.06ZM412.272 45.22C411.432 45.22 410.792 45.4667 410.352 45.96C409.926 46.44 409.712 47.06 409.712 47.82V49.68C409.712 49.96 409.779 50.2333 409.912 50.5C410.046 50.7667 410.226 51.0067 410.452 51.22C410.679 51.4333 410.952 51.6067 411.272 51.74C411.592 51.8733 411.946 51.94 412.332 51.94C413.826 51.94 414.572 50.88 414.572 48.76V48.36C414.572 47.32 414.399 46.54 414.052 46.02C413.706 45.4867 413.112 45.22 412.272 45.22ZM425.038 43.06C426.491 43.06 427.571 43.5067 428.278 44.4C428.985 45.28 429.338 46.58 429.338 48.3V48.82C429.338 49.6867 429.231 50.4533 429.018 51.12C428.805 51.7733 428.505 52.32 428.118 52.76C427.731 53.2 427.265 53.5333 426.718 53.76C426.185 53.9733 425.585 54.08 424.918 54.08C424.238 54.08 423.658 53.9667 423.178 53.74C422.698 53.5 422.311 53.1867 422.018 52.8V56.86C422.018 57.22 421.891 57.4867 421.638 57.66C421.385 57.8333 421.091 57.92 420.758 57.92C420.438 57.92 420.145 57.8333 419.878 57.66C419.625 57.4867 419.498 57.22 419.498 56.86V44.2C419.498 43.8533 419.618 43.6 419.858 43.44C420.111 43.2667 420.391 43.18 420.698 43.18C421.018 43.18 421.298 43.2667 421.538 43.44C421.791 43.6 421.918 43.8533 421.918 44.2V44.5C422.105 44.22 422.325 43.9867 422.578 43.8C422.831 43.6133 423.098 43.4667 423.378 43.36C423.658 43.2533 423.938 43.18 424.218 43.14C424.498 43.0867 424.771 43.06 425.038 43.06ZM424.538 45.22C423.698 45.22 423.058 45.4667 422.618 45.96C422.191 46.44 421.978 47.06 421.978 47.82V49.68C421.978 49.96 422.045 50.2333 422.178 50.5C422.311 50.7667 422.491 51.0067 422.718 51.22C422.945 51.4333 423.218 51.6067 423.538 51.74C423.858 51.8733 424.211 51.94 424.598 51.94C426.091 51.94 426.838 50.88 426.838 48.76V48.36C426.838 47.32 426.665 46.54 426.318 46.02C425.971 45.4867 425.378 45.22 424.538 45.22ZM439.564 41.86C439.257 41.86 439.104 42.0133 439.104 42.32V48.6C439.104 48.9067 439.257 49.06 439.564 49.06C440.697 49.06 441.777 49.0333 442.804 48.98C443.844 48.9133 444.85 48.8133 445.824 48.68C446.13 48.64 446.37 48.7133 446.544 48.9C446.73 49.0867 446.837 49.3267 446.864 49.62C446.89 49.9267 446.85 50.2 446.744 50.44C446.637 50.6667 446.437 50.8 446.144 50.84C445.73 50.8933 445.27 50.9467 444.764 51C444.27 51.04 443.704 51.08 443.064 51.12C442.424 51.16 441.704 51.1933 440.904 51.22C440.117 51.2333 439.23 51.24 438.244 51.24C437.604 51.24 437.157 51.12 436.904 50.88C436.664 50.64 436.544 50.2067 436.544 49.58V41.34C436.544 40.7133 436.664 40.28 436.904 40.04C437.157 39.8 437.604 39.68 438.244 39.68H444.564C444.87 39.68 445.097 39.7867 445.244 40C445.39 40.2133 445.464 40.4733 445.464 40.78C445.464 41.0733 445.39 41.3267 445.244 41.54C445.097 41.7533 444.87 41.86 444.564 41.86H439.564ZM452.244 44.24C452.564 44.24 452.797 44.3467 452.944 44.56C453.09 44.7733 453.164 45.0333 453.164 45.34C453.164 45.6467 453.09 45.9133 452.944 46.14C452.797 46.3533 452.564 46.46 452.244 46.46H450.364V54.74C450.364 55.1133 450.23 55.3867 449.964 55.56C449.71 55.7333 449.417 55.82 449.084 55.82C448.75 55.82 448.45 55.7333 448.184 55.56C447.93 55.3867 447.804 55.1133 447.804 54.74V39.42C447.804 39.0467 447.93 38.7733 448.184 38.6C448.45 38.4267 448.75 38.34 449.084 38.34C449.417 38.34 449.71 38.4267 449.964 38.6C450.23 38.7733 450.364 39.0467 450.364 39.42V44.24H452.244ZM456.307 42.54C456.307 41.9 456.447 41.3467 456.727 40.88C457.02 40.4133 457.433 40.0267 457.967 39.72C458.513 39.4133 459.173 39.1867 459.947 39.04C460.72 38.88 461.593 38.8 462.567 38.8C463.54 38.8 464.413 38.88 465.187 39.04C465.96 39.1867 466.613 39.4133 467.147 39.72C467.693 40.0267 468.107 40.4133 468.387 40.88C468.68 41.3467 468.827 41.9 468.827 42.54C468.827 43.18 468.68 43.7333 468.387 44.2C468.107 44.6667 467.693 45.0533 467.147 45.36C466.613 45.6667 465.96 45.9 465.187 46.06C464.413 46.2067 463.54 46.28 462.567 46.28C461.593 46.28 460.72 46.2067 459.947 46.06C459.173 45.9 458.513 45.6667 457.967 45.36C457.433 45.0533 457.02 44.6667 456.727 44.2C456.447 43.7333 456.307 43.18 456.307 42.54ZM466.287 42.54C466.287 42.0333 466 41.6333 465.427 41.34C464.853 41.0467 463.9 40.9 462.567 40.9C461.233 40.9 460.28 41.0467 459.707 41.34C459.133 41.6333 458.847 42.0333 458.847 42.54C458.847 43.0467 459.133 43.4467 459.707 43.74C460.28 44.0333 461.233 44.18 462.567 44.18C463.9 44.18 464.853 44.0333 465.427 43.74C466 43.4467 466.287 43.0467 466.287 42.54ZM455.007 49.66C454.7 49.66 454.473 49.5533 454.327 49.34C454.18 49.1267 454.107 48.88 454.107 48.6C454.107 48.3067 454.18 48.0533 454.327 47.84C454.473 47.6267 454.7 47.52 455.007 47.52H470.127C470.433 47.52 470.66 47.6267 470.807 47.84C470.953 48.0533 471.027 48.3067 471.027 48.6C471.027 48.88 470.953 49.1267 470.807 49.34C470.66 49.5533 470.433 49.66 470.127 49.66H464.107V52.02C464.107 52.3667 463.98 52.62 463.727 52.78C463.487 52.9267 463.187 53 462.827 53C462.48 53 462.18 52.9267 461.927 52.78C461.687 52.62 461.567 52.3667 461.567 52.02V49.66H455.007ZM468.287 54.66C468.593 54.66 468.82 54.7667 468.967 54.98C469.113 55.1933 469.187 55.4467 469.187 55.74C469.187 56.0333 469.113 56.2867 468.967 56.5C468.82 56.7133 468.593 56.82 468.287 56.82H457.967C457.327 56.82 456.88 56.7 456.627 56.46C456.387 56.22 456.267 55.7867 456.267 55.16V52.06C456.267 51.6867 456.393 51.4133 456.647 51.24C456.913 51.0667 457.22 50.98 457.567 50.98C457.9 50.98 458.193 51.0667 458.447 51.24C458.713 51.4133 458.847 51.6867 458.847 52.06V54.2C458.847 54.5067 459 54.66 459.307 54.66H468.287ZM485.27 39.38C485.91 39.38 486.35 39.5 486.59 39.74C486.843 39.98 486.97 40.4133 486.97 41.04V43.72C486.97 44.3467 486.843 44.78 486.59 45.02C486.35 45.26 485.91 45.38 485.27 45.38H477.51C477.203 45.38 477.05 45.5333 477.05 45.84V46.7C477.05 47.0067 477.203 47.16 477.51 47.16H486.47C486.777 47.16 487.003 47.2667 487.15 47.48C487.297 47.6933 487.37 47.9467 487.37 48.24C487.37 48.5333 487.297 48.7867 487.15 49C487.003 49.2133 486.777 49.32 486.47 49.32H476.23C475.59 49.32 475.143 49.2 474.89 48.96C474.65 48.72 474.53 48.2867 474.53 47.66V44.96C474.53 44.3333 474.65 43.9 474.89 43.66C475.143 43.42 475.59 43.3 476.23 43.3H483.99C484.297 43.3 484.45 43.1467 484.45 42.84V42C484.45 41.6933 484.297 41.54 483.99 41.54H475.39C475.083 41.54 474.857 41.4333 474.71 41.22C474.563 41.0067 474.49 40.7533 474.49 40.46C474.49 40.1667 474.563 39.9133 474.71 39.7C474.857 39.4867 475.083 39.38 475.39 39.38H485.27ZM473.21 54.18C472.903 54.18 472.677 54.0733 472.53 53.86C472.383 53.6467 472.31 53.3933 472.31 53.1C472.31 52.8067 472.383 52.5533 472.53 52.34C472.677 52.1267 472.903 52.02 473.21 52.02H479.49V48.24H482.05V52.02H488.33C488.637 52.02 488.863 52.1267 489.01 52.34C489.157 52.5533 489.23 52.8067 489.23 53.1C489.23 53.3933 489.157 53.6467 489.01 53.86C488.863 54.0733 488.637 54.18 488.33 54.18H473.21ZM495.713 41.7C495.406 41.7 495.253 41.8533 495.253 42.16V46.02C495.253 46.3267 495.406 46.48 495.713 46.48H504.493C504.8 46.48 505.026 46.5867 505.173 46.8C505.32 47.0133 505.393 47.2667 505.393 47.56C505.393 47.8533 505.32 48.1067 505.173 48.32C505.026 48.5333 504.8 48.64 504.493 48.64H494.373C493.733 48.64 493.286 48.52 493.033 48.28C492.793 48.04 492.673 47.6067 492.673 46.98V41.2C492.673 40.5733 492.793 40.14 493.033 39.9C493.286 39.66 493.733 39.54 494.373 39.54H504.293C504.6 39.54 504.826 39.6467 504.973 39.86C505.12 40.0733 505.193 40.3267 505.193 40.62C505.193 40.9133 505.12 41.1667 504.973 41.38C504.826 41.5933 504.6 41.7 504.293 41.7H495.713ZM491.413 54.18C491.106 54.18 490.88 54.0733 490.733 53.86C490.586 53.6467 490.513 53.3933 490.513 53.1C490.513 52.7933 490.586 52.5333 490.733 52.32C490.88 52.1067 491.106 52 491.413 52H506.533C506.84 52 507.066 52.1067 507.213 52.32C507.36 52.5333 507.433 52.7933 507.433 53.1C507.433 53.3933 507.36 53.6467 507.213 53.86C507.066 54.0733 506.84 54.18 506.533 54.18H491.413Z" fill="#FF6C9A"/>
</svg>
