<svg width="32" height="32" viewBox="0 0 32 32" fill="none" xmlns="http://www.w3.org/2000/svg">
<rect width="32" height="32" rx="16" fill="#FF6C9A"/>
<path d="M23.2607 6C25.3172 6 27 7.70471 27 9.78906V18.9355C27 21.0126 25.3249 22.7176 23.2686 22.7178H18.0811L17.1973 24.2646L16.3281 25.79C16.1656 26.0694 15.7697 26.0694 15.6143 25.79L14.7451 24.2646L13.8623 22.7178H8.73145C6.68201 22.7178 5 21.0199 5 18.9355V9.78223C5 7.70503 6.67495 6 8.73145 6H23.2607ZM21.4375 12.7109C20.3988 12.7111 19.5576 13.5924 19.5576 14.6738C19.5576 15.7553 20.3988 16.6366 21.4375 16.6367C21.8685 16.6367 22.2643 16.486 22.5752 16.2354V16.7793C22.5752 16.7793 22.4624 17.3174 21.6709 17.3174V18.3271C21.6709 18.3271 22.5258 18.4269 23.2891 17.6533C23.2929 17.6492 23.6434 17.2711 23.7207 16.7725V12.79H22.5752V13.1123C22.2572 12.8617 21.8614 12.7109 21.4375 12.7109ZM8.2793 16.6797H9.41016V16.3145C9.72813 16.6008 10.1311 16.7803 10.5762 16.7803C11.5865 16.7801 12.406 15.8703 12.4062 14.7461C12.4062 13.6217 11.5937 12.7043 10.5762 12.7041C10.1381 12.7041 9.72815 12.8763 9.41016 13.1699V11.4863H8.2793V16.6797ZM17.0137 12.7041C15.89 12.7041 14.9785 13.6137 14.9785 14.7383C14.9785 15.8628 15.89 16.7725 17.0137 16.7725C18.1373 16.7725 19.0488 15.8628 19.0488 14.7383C19.0488 13.6137 18.1444 12.7041 17.0137 12.7041ZM12.5332 11.3857V12.4248C12.5332 12.4248 13.0562 12.4963 13.1553 13.0117V16.6797H14.3213V12.9834C14.2517 12.476 13.9567 12.0932 13.9473 12.0811C13.283 11.286 12.5332 11.3857 12.5332 11.3857ZM10.3496 13.7217C10.9149 13.7217 11.3671 14.1725 11.3672 14.7383C11.3672 15.3041 10.915 15.7559 10.3496 15.7559C9.93273 15.7558 9.57247 15.5049 9.41699 15.1396C9.36752 15.0179 9.33203 14.8815 9.33203 14.7383C9.33206 14.5951 9.36049 14.4586 9.41699 14.3369C9.57256 13.9719 9.93287 13.7217 10.3496 13.7217ZM17.0137 13.7646C17.5508 13.7646 17.9892 14.2011 17.9893 14.7383C17.9893 15.2755 17.5578 15.7129 17.0137 15.7129C16.4766 15.7129 16.0381 15.2755 16.0381 14.7383C16.0381 14.2011 16.4766 13.7646 17.0137 13.7646ZM21.6494 13.6641C22.0522 13.6641 22.4056 13.8932 22.5752 14.2227C22.6459 14.3587 22.6816 14.5094 22.6816 14.667C22.6816 14.8244 22.6387 14.9815 22.5752 15.1104C22.4056 15.447 22.0522 15.6699 21.6494 15.6699C21.0772 15.6698 20.6183 15.2183 20.6182 14.667C20.6182 14.1156 21.0842 13.6642 21.6494 13.6641Z" fill="white"/>
</svg>
